<svg xmlns="http://www.w3.org/2000/svg" fill="none" viewBox="0 0 24 24" width="100%" height="100%">
  <path fill="#3D474D" d="M6.75 9a.75.75 0 0 0-1.5 0v.75h1.5V9ZM10 12.75a.75.75 0 0 0 .75-.75V9.75h-1.5V12c0 .414.336.75.75.75ZM10.75 9a.75.75 0 0 0-1.5 0v.75h1.5V9Zm4 0a.75.75 0 0 0-1.5 0v.75h1.5V9Z"/>
  <path fill="#3D474D" fill-rule="evenodd" d="M2.865 9.795a.188.188 0 0 1 .068-.024c.049-.01.146-.021.349-.021H5.25V12a.75.75 0 0 0 1.5 0V9.75h2.5V9a.75.75 0 0 1 1.5 0v.75h2.5V12a.75.75 0 0 0 1.5 0V9.75h2.5V12a.75.75 0 0 0 1.5 0V9.75h1.968c.203 0 .3.011.35.02.03.006.04.01.067.025a.16.16 0 0 1 .07.07.19.19 0 0 1 .025.068c.009.049.02.146.02.349v3.436c0 .203-.011.3-.02.35a.19.19 0 0 1-.025.067.16.16 0 0 1-.07.07.19.19 0 0 1-.068.024c-.049.01-.146.021-.349.021H3.282c-.203 0-.3-.011-.35-.02a.19.19 0 0 1-.067-.025.16.16 0 0 1-.07-.07.188.188 0 0 1-.024-.068 1.977 1.977 0 0 1-.021-.349v-3.436c0-.203.011-.3.02-.35a.188.188 0 0 1 .025-.067.16.16 0 0 1 .07-.07ZM18 8.25a.75.75 0 0 0-.75.75v.75h1.5V9a.75.75 0 0 0-.75-.75Zm-4 0H3.282c-.507 0-.808.053-1.124.222a1.658 1.658 0 0 0-.686.686c-.169.316-.222.617-.222 1.124v3.436c0 .507.053.808.222 1.124.157.294.392.529.686.686.316.169.617.222 1.124.222h17.436c.507 0 .808-.053 1.124-.222.294-.157.529-.392.686-.686.169-.316.222-.617.222-1.124v-3.436c0-.507-.053-.808-.222-1.124a1.659 1.659 0 0 0-.686-.686c-.316-.169-.617-.222-1.124-.222H14Zm0 0a.75.75 0 0 1 .75.75v.75h-1.5V9a.75.75 0 0 1 .75-.75Zm-8 0a.75.75 0 0 1 .75.75v.75h-1.5V9A.75.75 0 0 1 6 8.25Z" clip-rule="evenodd"/>
  <path fill="#3D474D" d="M18.75 9a.75.75 0 0 0-1.5 0v.75h1.5V9Z"/>
</svg>
