<svg width="24" height="24" fill="none" xmlns="http://www.w3.org/2000/svg"><path d="M3 14H1c0 1.343.839 2.425 2 3.241V14zM3 9H1c0 1.343.839 2.425 2 3.241V9zM1 4.5c0 .9.524 1.616 1.148 2.133.251.208.538.4.852.578V4H1.055C1.02 4.16 1 4.326 1 4.5zM3 18.5H1c0 .17.014.338.04.5H3v-.5z" fill="#3D474D"/><path fill-rule="evenodd" clip-rule="evenodd" d="M3.423 3.908C3.036 4.228 3 4.434 3 4.5V4H1.055c.15-.669.589-1.215 1.093-1.633.631-.522 1.485-.948 2.45-1.286C6.54.401 9.158 0 12 0s5.46.402 7.401 1.081c.966.338 1.82.764 2.45 1.286.505.418.943.964 1.094 1.633H23v14.5h-2v-1.259a9.254 9.254 0 01-1.519.853C17.515 18.979 14.87 19.5 12 19.5c-2.87 0-5.515-.521-7.481-1.406A9.253 9.253 0 013 17.24V14c0 .604.592 1.484 2.34 2.27 1.652.744 4.006 1.23 6.66 1.23 2.653 0 5.008-.486 6.66-1.23C20.409 15.484 21 14.604 21 14v-1.759a9.254 9.254 0 01-1.519.853C17.515 13.979 14.87 14.5 12 14.5c-2.87 0-5.515-.521-7.481-1.406A9.253 9.253 0 013 12.24V9c0 .604.592 1.484 2.34 2.27 1.652.744 4.006 1.23 6.66 1.23 2.653 0 5.008-.486 6.66-1.23C20.409 10.484 21 9.604 21 9V7.21a9.934 9.934 0 01-1.599.709C17.46 8.599 14.843 9 12 9s-5.46-.402-7.401-1.081A9.936 9.936 0 013 7.21V4.5c0 .066.036.271.423.592.381.315.993.644 1.836.939C6.937 6.618 9.32 7 12 7c2.68 0 5.063-.382 6.74-.969.844-.295 1.456-.624 1.837-.94.387-.32.423-.525.423-.591 0-.066-.036-.271-.423-.592-.381-.315-.993-.644-1.836-.939C17.063 2.382 14.68 2 12 2c-2.68 0-5.063.382-6.74.969-.844.295-1.456.624-1.837.94zM1 4.5c0 .9.524 1.616 1.148 2.133.251.208.538.4.852.578V9H1V4.5zM1 14c0 1.343.839 2.425 2 3.241V18.5H1V14zm.04 5a3.145 3.145 0 01-.04-.5v.5h.04zm21.92 0H21v-.5c0 .604-.592 1.484-2.34 2.27C17.009 21.514 14.654 22 12 22c-2.654 0-5.008-.486-6.66-1.23C3.591 19.984 3 19.104 3 18.5v.5H1.04c.261 1.626 1.776 2.828 3.479 3.594C6.485 23.479 9.13 24 12 24c2.87 0 5.515-.521 7.481-1.406 1.703-.766 3.218-1.968 3.48-3.594zM1 14h2v-1.759C1.839 11.425 1 10.343 1 9v5zm0-9.5c0-.174.02-.34.055-.5H1v.5zM22.96 19c.026-.162.04-.33.04-.5v.5h-.04z" fill="#3D474D"/><path d="M23 18.5h-2v.5h1.96c.026-.162.04-.33.04-.5z" fill="#3D474D"/></svg>