<svg width="24" height="24" viewBox="0 0 24 24" fill="none" xmlns="http://www.w3.org/2000/svg">
<path d="M11 7H6C5.44772 7 5 7.44772 5 8V13C5 13.5523 5.44772 14 6 14H11C11.5523 14 12 13.5523 12 13V8C12 7.44772 11.5523 7 11 7Z" fill="#3D474D"/>
<path d="M7 20H8V19H7V20Z" fill="#3D474D"/>
<path fill-rule="evenodd" clip-rule="evenodd" d="M5 5C3.89543 5 3 5.89543 3 7V17C3 18.1046 3.89543 19 5 19H7V20H8V19H16V20H17V19H19C20.1046 19 21 18.1046 21 17V7C21 5.89543 20.1046 5 19 5H5ZM17 19V17H17.5C17.7761 17 18 16.7761 18 16.5C18 16.2239 17.7761 16 17.5 16H15.5C15.2239 16 15 16.2239 15 16.5C15 16.7761 15.2239 17 15.5 17H16V19H17ZM8 19V17H8.5C8.77614 17 9 16.7761 9 16.5C9 16.2239 8.77614 16 8.5 16H6.5C6.22386 16 6 16.2239 6 16.5C6 16.7761 6.22386 17 6.5 17H7V19H8ZM1 7C1 4.79086 2.79086 3 5 3H19C21.2091 3 23 4.79086 23 7V17C23 19.2091 21.2091 21 19 21H5C2.79086 21 1 19.2091 1 17V7Z" fill="#3D474D"/>
<path d="M16 20H17V19H16V20Z" fill="#3D474D"/>
</svg>
