<svg width="24" height="24" fill="none" xmlns="http://www.w3.org/2000/svg"><path d="M11 7H6a1 1 0 00-1 1v5a1 1 0 001 1h5a1 1 0 001-1V8a1 1 0 00-1-1zM7 20h1v-1H7v1z" fill="#3D474D"/><path fill-rule="evenodd" clip-rule="evenodd" d="M5 5a2 2 0 00-2 2v10a2 2 0 002 2h2v1h1v-1h8v1h1v-1h2a2 2 0 002-2V7a2 2 0 00-2-2H5zm12 14v-2h.5a.5.5 0 000-1h-2a.5.5 0 000 1h.5v2h1zm-9 0v-2h.5a.5.5 0 000-1h-2a.5.5 0 000 1H7v2h1zM1 7a4 4 0 014-4h14a4 4 0 014 4v10a4 4 0 01-4 4H5a4 4 0 01-4-4V7z" fill="#3D474D"/><path d="M16 20h1v-1h-1v1z" fill="#3D474D"/></svg>