<svg width="24" height="24" fill="none" xmlns="http://www.w3.org/2000/svg"><path fill-rule="evenodd" clip-rule="evenodd" d="M13.316 2a1 1 0 10-2 0v.893a7.091 7.091 0 00-1.5.327c-1.871.624-3.514 2.104-3.802 4.027-.314 2.095 1.048 3.97 3.689 5.143.391.174 1.058.33 1.613.449v5.088c-1.426-.187-3.049-.806-4.59-1.907a1.25 1.25 0 00-1.453 2.035c1.906 1.36 4.043 2.193 6.043 2.39V22a1 1 0 102 0v-1.584c.09-.012.179-.026.267-.042 2.676-.467 4.777-2.143 4.978-4.41.21-2.38-1.724-4.314-4.864-5.17a8.617 8.617 0 00-.381-.091V5.516c.921.227 1.92.707 3.01 1.486a1.25 1.25 0 101.453-2.034c-1.482-1.059-2.977-1.751-4.463-2.005V2zm0 11.286a9.847 9.847 0 00-.277-.08c-.17-.047-.48-.11-.878-.191l-.635-.132-.21-.044v-2.563c.22.052.467.107.725.16.16.035.33.07.502.105.272.055.544.111.773.162v2.583zm0 0c2.404.73 2.805 1.888 2.755 2.457-.06.684-.814 1.75-2.755 2.138v-4.595zm-2-3.01a11.226 11.226 0 01-.459-.122 2.467 2.467 0 01-.129-.044l-.01-.004c-2.096-.932-2.312-1.952-2.232-2.488.106-.709.832-1.597 2.12-2.026.23-.077.467-.136.71-.176v4.86z" fill="#3D474D"/><path d="M12.543 10.54c-.171-.034-.342-.07-.502-.103a26.852 26.852 0 01-.725-.161v2.563l.21.044.635.132c.398.08.708.144.879.191.094.026.187.052.276.08v-2.583c-.229-.051-.5-.107-.773-.162z" fill="#3D474D"/></svg>