<svg width="24" height="24" fill="none" xmlns="http://www.w3.org/2000/svg"><path fill-rule="evenodd" clip-rule="evenodd" d="M4 12h1.75c0 .68.056 1.349.163 2H4a1 1 0 100 2h2.42c1.454 4.188 5.128 7.25 9.58 7.25 1.245 0 2.44-.244 3.543-.69a1.25 1.25 0 10-.936-2.318A6.935 6.935 0 0116 20.75c-2.938 0-5.592-1.891-6.898-4.75H14a1 1 0 100-2H8.451a9.918 9.918 0 01-.201-2H14a1 1 0 100-2H8.451c.812-3.943 3.97-6.75 7.549-6.75.903 0 1.77.174 2.576.495a1.25 1.25 0 00.925-2.322A9.433 9.433 0 0016 .75C10.865.75 6.765 4.824 5.913 10H4a1 1 0 100 2zm1.913-2h2.538a9.918 9.918 0 00-.201 2h-2.5c0-.68.056-1.349.163-2zm2.538 4H5.913c.113.688.284 1.357.507 2h2.682a9.35 9.35 0 01-.65-2z" fill="#3D474D"/><path d="M5.75 12h2.5c0-.692.07-1.36.201-2H5.913a12.31 12.31 0 00-.163 2zM8.451 14H5.913c.113.688.284 1.357.507 2h2.682a9.35 9.35 0 01-.65-2z" fill="#3D474D"/></svg>