<svg width="24" height="24" fill="none" xmlns="http://www.w3.org/2000/svg"><path fill-rule="evenodd" clip-rule="evenodd" d="M17.893 9.122c1.627 0 2.946-1.276 2.946-2.85 0-1.573-1.319-2.849-2.946-2.849-1.627 0-2.947 1.276-2.947 2.85 0 1.573 1.32 2.849 2.947 2.849zm4.886 10.499c.006.199.01.453.015.764a1.071 1.071 0 01-1.06 1.083H17c-.592 0-1.071-.48-1.071-1.07V17.67c-1.637.633-2.947.95-3.929.95a.725.725 0 00.737-.713.725.725 0 00-.737-.712l-.1-.007a.72.72 0 01-.637-.706c0-.393.33-.712.737-.712 4.42 0 2.946-5.224 5.893-5.699 3.471-.559 4.703 3.094 4.886 9.55z" fill="#3D474D"/><path fill-rule="evenodd" clip-rule="evenodd" d="M6.107 9.122c1.627 0 2.947-1.276 2.947-2.85 0-1.573-1.32-2.849-2.947-2.849S3.161 4.7 3.161 6.273c0 1.573 1.319 2.849 2.946 2.849zM1.221 19.62c-.005.199-.01.453-.014.764a1.071 1.071 0 001.058 1.083H7c.592 0 1.072-.48 1.072-1.07V17.67c1.632.631 2.939.948 3.92.95.406-.002.736-.32.736-.714a.725.725 0 00-.736-.712.725.725 0 01-.737-.712c0-.39.324-.707.726-.713l.019.001c-4.42 0-2.946-5.224-5.893-5.699-3.471-.559-4.703 3.094-4.886 9.55z" fill="#3D474D"/></svg>