<svg width="24" height="24" fill="none" xmlns="http://www.w3.org/2000/svg"><path fill-rule="evenodd" clip-rule="evenodd" d="M4.5 12a1 1 0 011-1H15a1 1 0 110 2H5.5a1 1 0 01-1-1z" fill="#3D474D"/><path d="M10.25 15.116V13h-2.5v2.116a4.75 4.75 0 01-1.783 3.71l-.248.198a2.373 2.373 0 001.483 4.226H18a1.25 1.25 0 100-2.5H7.563a7.25 7.25 0 002.687-5.634zm0-8.616a3.25 3.25 0 013.25-3.25h.5A2.75 2.75 0 0116.75 6a1.25 1.25 0 102.5 0C19.25 3.1 16.9.75 14 .75h-.5A5.75 5.75 0 007.75 6.5V11h2.5V6.5z" fill="#3D474D"/></svg>