<svg width="24" height="24" fill="none" xmlns="http://www.w3.org/2000/svg"><path d="M13.25 12a1.25 1.25 0 00-2.5 0h2.5zm0 0h-2.5v1.319l.153.28c.087.16.206.295.347.401h1.5c.14-.106.26-.242.347-.401l.153-.28V12z" fill="#3D474D"/><path fill-rule="evenodd" clip-rule="evenodd" d="M7.097 1.401A1.25 1.25 0 104.903 2.6L10.03 12H7a1 1 0 100 2h3.75v1H7a1 1 0 100 2h3.75v5a1.25 1.25 0 002.5 0v-5H17a1 1 0 100-2h-3.75v-1H17a1 1 0 100-2h-3.03l5.127-9.401A1.25 1.25 0 0016.903 1.4L12 10.39 7.097 1.4zM13.25 15v2h-2.5v-2h2.5zM12 10.75c.69 0 1.25.56 1.25 1.25v1.319l-.153.28a1.25 1.25 0 01-.347.401h-1.5a1.25 1.25 0 01-.347-.401l-.153-.28V12c0-.69.56-1.25 1.25-1.25z" fill="#3D474D"/><path d="M13.25 17v-2h-2.5v2h2.5z" fill="#3D474D"/></svg>