<svg width="24" height="24" fill="none" xmlns="http://www.w3.org/2000/svg"><path fill-rule="evenodd" clip-rule="evenodd" d="M17 .361V6.56l.23-.122c.525-.296.961-.632 1.287-.992l.134-.156.58-.723.766.526C22.512 6.822 24 9.304 24 12c0 .364-.027.725-.08 1.083l-.07.46-.396.244a5.133 5.133 0 00-2.314 3.15l-.273 1.128-1.075-.437a5.336 5.336 0 00-2.015-.39c-2.143 0-4.043 1.262-4.85 3.154l-.92 2.155-.92-2.155c-.807-1.892-2.707-3.154-4.85-3.154-.565 0-1.117.086-1.641.254l-.996.32-.274-1.01a5.157 5.157 0 00-2.73-3.265l-.497-.242-.06-.549A6.9 6.9 0 010 12c0-2.7 1.492-5.186 4.014-6.915l.766-.525.58.725c.336.419.818.809 1.417 1.147L7 6.553V.361l3.425 3.871.197-.085c.364-.144.75-.231 1.146-.257l.24-.007c.477 0 .942.09 1.377.261l.194.083 3.42-3.866zm-2 5.277l-1.108 1.253-.743-.596a1.812 1.812 0 00-1.142-.412c-.415 0-.81.145-1.147.416l-.743.6L9 5.64v3.782l-1.308-.425c-1.226-.398-2.288-.962-3.104-1.655l-.113-.1-.041.033c-1.49 1.25-2.35 2.822-2.428 4.477L2 12.025l.204.126a7.175 7.175 0 012.676 3.083l.051.118.322-.05c.216-.028.433-.047.653-.057l.33-.007a7.296 7.296 0 015.751 2.781l.018.025.192-.237a7.297 7.297 0 015.304-2.564l.275-.005c.481 0 .956.046 1.419.136l.333.073.04-.095a7.156 7.156 0 012.345-2.938l.071-.05.009-.1L22 12c0-1.743-.868-3.409-2.427-4.72l-.041-.034-.114.102c-.743.63-1.69 1.153-2.78 1.54l-.33.113L15 9.423V5.638zM10.5 8c.276 0 .5.214.5.505v.99a.51.51 0 01-.412.497L10.5 10a.495.495 0 01-.5-.505v-.99a.51.51 0 01.412-.497L10.5 8zm3 0c.276 0 .5.214.5.505v.99a.51.51 0 01-.412.497L13.5 10a.495.495 0 01-.5-.505v-.99a.51.51 0 01.412-.497L13.5 8z" fill="#3D474D"/></svg>