<svg width="24" height="24" fill="none" xmlns="http://www.w3.org/2000/svg"><path fill-rule="evenodd" clip-rule="evenodd" d="M12.213.2v.016l.086.007c2.618.233 5.006 2.217 5.723 4.733l.062.237.051.233.215 1.093c.091.466.57.889 1.047.947l.11.007-.001.033.085.01a4.007 4.007 0 013.389 3.559l.015.204.005.2v2.54h-1.808c-1.055 0-1.92.817-1.996 1.856l-.006.15-.037-.001-.007.054a3 3 0 01-2.59 2.465l-.181.015-.176.006h-.779c-.64 0-1.426.507-1.733 1.098l-.059.128L12 23.935l-1.628-4.145c-.239-.607-.99-1.15-1.652-1.219l-.14-.007H7.8a3 3 0 01-2.91-2.312l-.037-.174-.008-.054H4.81a2 2 0 00-1.699-1.983l-.153-.017-.15-.006H1V11.48a4 4 0 013.21-3.93l.198-.034.085-.011v-.032c.434 0 .896-.327 1.085-.734l.044-.113.028-.107.215-1.093C6.438 2.51 9.247.2 12.213.2zm-.217 2.005l-.184.016c-1.8.191-3.496 1.636-3.94 3.394l-.045.197-.214 1.093c-.237 1.204-1.234 2.19-2.41 2.48l-.188.04-.016.002v.046a1.997 1.997 0 00-1.976 1.701l-.018.155-.005.15v.544a4.001 4.001 0 013.732 3.21l.034.199.015.124h.029c0 .477.329.877.765.981l.111.02.115.007h.779c1.255 0 2.557.741 3.283 1.802l.116.18.021.037.02-.036c.627-1.036 1.809-1.813 3.001-1.959l.21-.019.19-.005h.778a.997.997 0 00.985-.89l.006-.117.028-.001.016-.123a4.006 4.006 0 013.561-3.395l.205-.015v-.544a2.006 2.006 0 00-1.697-1.983l-.154-.018L19 9.473v-.046l-.203-.042c-1.056-.261-1.965-1.08-2.312-2.113l-.059-.196-.039-.171-.215-1.093c-.361-1.841-2.123-3.403-3.991-3.592l-.185-.015zM10 6.2c.552 0 1 .443 1 .999V8.2a.997.997 0 01-.883.992L10 9.2c-.552 0-1-.443-1-.999V7.199c0-.512.383-.935.883-.992L10 6.2zm4 0c.552 0 1 .443 1 .999V8.2a.997.997 0 01-.883.992L14 9.2c-.552 0-1-.443-1-.999V7.199c0-.512.383-.935.883-.992L14 6.2z" fill="#3D474D"/></svg>