<svg width="24" height="24" fill="none" xmlns="http://www.w3.org/2000/svg"><path d="M21.624 6l-.866-.5a1 1 0 00-1.366.366l-2 3.464a1 1 0 00.366 1.366l.866.5a1 1 0 001.366-.366l2-3.464A1 1 0 0021.624 6z" fill="#3D474D"/><path fill-rule="evenodd" clip-rule="evenodd" d="M11.628 6.446a2.001 2.001 0 00-.36.431L3.89 18.783a2 2 0 00.7 2.786l1.677.968.054.03a2 2 0 002.708-.817L15.65 9.407c.064-.118.114-.24.152-.363a1.499 1.499 0 01-.44-.17l-1.733-1a1.501 1.501 0 01-.242-.174 2.546 2.546 0 01-.443-.2c-.292-.169-.583-.422-.912-.708-.128-.111-.262-.227-.404-.346zm2.26 2.016l-.92-.531L5.59 19.837l1.677.968 6.62-12.343z" fill="#3D474D"/><path d="M17.026 7.964l1-1.732.005.003a1 1 0 00-.42-1.258l-1.732-1a.934.934 0 00-.25-.1 6.169 6.169 0 00-.435-.275c-1.949-1.125-7.449-1.125-8.449.607 2.742 0 4.298 1.079 5.318 1.938a2.01 2.01 0 01.565-.187c-.86-.748-2.257-1.838-4.535-2.159a4.46 4.46 0 01.276-.1c.63-.208 1.424-.33 2.267-.367.839-.037 1.706.013 2.476.138.778.127 1.42.325 1.832.563.15.087.283.171.4.252l.17.076a.436.436 0 01.115.047l1.732 1a.5.5 0 01.183.683l-1 1.732a.5.5 0 01-.683.183l-.03-.017c.045.182.064.37.055.559a1 1 0 001.091-.475l.06-.104-.01-.007z" fill="#3D474D"/><path fill-rule="evenodd" clip-rule="evenodd" d="M15.843 3.417c.1.032.196.075.286.127l1.732 1a1.5 1.5 0 01.605 1.942l-.435-.25a1 1 0 00-.42-1.259l-1.732-1a.934.934 0 00-.25-.1 6.169 6.169 0 00-.435-.275c-1.949-1.125-7.449-1.125-8.449.607 2.742 0 4.298 1.079 5.318 1.938a2.01 2.01 0 01.565-.187c-.86-.748-2.257-1.838-4.535-2.159a4.46 4.46 0 01.276-.1c.63-.208 1.424-.33 2.267-.367.839-.037 1.706.013 2.476.138.778.127 1.42.325 1.832.563.15.087.283.171.4.252l.17.076a.436.436 0 01.115.047l1.732 1a.5.5 0 01.183.683l-1 1.732a.5.5 0 01-.683.183l-.03-.017c.045.182.064.37.055.559a1 1 0 001.091-.475l.06-.104.434.25-.06.104a1.5 1.5 0 01-2.05.55l-1.732-1a1.501 1.501 0 01-.242-.175 2.546 2.546 0 01-.443-.2c-.292-.169-.583-.422-.912-.708-.128-.111-.262-.227-.404-.346-.985-.82-2.357-1.737-4.883-1.737l-.433-.75c.343-.594 1.02-.97 1.745-1.208.743-.245 1.634-.377 2.535-.416.904-.04 1.84.014 2.68.15.833.136 1.61.36 2.172.684.143.083.276.166.399.248zm1.628 4.804l.94-1.628c.02-.035.038-.07.055-.107l.426.246-1 1.732-.421-.243zm-.433-.25l.94-1.628c.02-.035.038-.071.053-.108l-.005-.003-1 1.732.012.007z" fill="#3D474D"/><path d="M18.031 6.235a1.005 1.005 0 01-.054.108l-.94 1.628.434.25.94-1.628c.02-.035.038-.07.055-.107l-.435-.25z" fill="#3D474D"/></svg>