<svg width="24" height="24" fill="none" xmlns="http://www.w3.org/2000/svg"><path fill-rule="evenodd" clip-rule="evenodd" d="M11.5 6a2 2 0 100-4 2 2 0 000 4z" fill="#3D474D"/><path d="M7.737 8.075a1 1 0 00-1.995-.14l-.28 3.99a1 1 0 001.996.14l.28-3.99zM11.24 14.155a1.25 1.25 0 00-2.418-.574c-.012.936.5 1.971 1.263 2.516l.837.603.318-2.545z" fill="#3D474D"/><path fill-rule="evenodd" clip-rule="evenodd" d="M14.649 16.508a1.25 1.25 0 00-.422-.525l-2.689-1.92c-.094-.068-.224-.345-.216-.454l.215-2.978 1.014 1.182c.237.277.584.437.949.437h2.785l2.737 8.897a.5.5 0 10.956-.294l-2.66-8.644A1.25 1.25 0 0017 9.75l-.437.005-.585-1.902a.5.5 0 10-.956.294l.498 1.619-1.418.015L12.1 7.446c-1.089-1.27-2.8-.707-2.917.959l-.354 5.02a2.426 2.426 0 00-.007.156c-.03.084-.05.172-.062.264l-.47 3.536L5.7 19.54a1.25 1.25 0 001.6 1.92l3-2.5c.244-.203.401-.49.44-.805l.182-1.455 1.576 1.137 1.353 3.155a1.25 1.25 0 102.298-.984l-1.5-3.5zm.871-6.742l.765 2.484H17c.11 0 .217-.014.318-.04l-.755-2.455-1.043.01zm-4.28 4.389l-.318 2.545-.837-.603c-.762-.545-1.275-1.58-1.263-2.516a1.25 1.25 0 012.418.574z" fill="#3D474D"/><path d="M15.52 9.766l.765 2.484H17c.11 0 .217-.014.318-.04l-.755-2.455-1.043.01z" fill="#3D474D"/></svg>