<svg width="24" height="24" fill="none" xmlns="http://www.w3.org/2000/svg"><path fill-rule="evenodd" clip-rule="evenodd" d="M14 1l1 1s-1 1-1 3c0 .049-.003.097-.008.143a7.784 7.784 0 011.156-.135L15.5 5c4.71 0 8.5 4.043 8.5 9s-3.79 9-8.5 9a8.076 8.076 0 01-3.37-.735l-.13-.063-.13.063a8.075 8.075 0 01-3.018.727L8.5 23C3.79 23 0 18.957 0 14s3.79-9 8.5-9c.47 0 .935.04 1.391.12l.082.016c.006-.044.015-.09.027-.136.5-2 4-4 4-4zm1.5 6a6.084 6.084 0 00-3.007.794L12 8.072l-.491-.278A6.096 6.096 0 008.5 7C4.925 7 2 10.12 2 14s2.925 7 6.5 7a6.096 6.096 0 003.009-.794l.49-.277.492.277c.921.52 1.946.794 3.009.794 3.575 0 6.5-3.12 6.5-7s-2.925-7-6.5-7zm1.45 8.001C16.601 16.697 14.517 18 12 18c-2.518 0-4.602-1.303-4.95-2.999h9.9zM8 10l2 3H6l2-3zm8 0l2 3h-4l2-3z" fill="#3D474D"/></svg>