<svg width="24" height="24" fill="none" xmlns="http://www.w3.org/2000/svg"><path fill-rule="evenodd" clip-rule="evenodd" d="M12 1a9.995 9.995 0 019.996 9.726l.004.28V13c0 2.605-1.964 5.104-4.482 5.752l-.223.052-.032.007v.188a3.002 3.002 0 01-2.65 2.98l-.113.01V22a1 1 0 11-2 0h-1a1 1 0 11-2 0l.001-.01a3.004 3.004 0 01-2.76-2.815l-.004-.176-.001-.188-.26-.06c-2.363-.613-4.24-2.859-4.455-5.286l-.016-.236L2 13v-1.993c0-5.324 4.16-9.693 9.441-9.991l.28-.012L12 1zm0 2l-.236.003c-4.235.123-7.631 3.534-7.76 7.755L4 11.007V13c0 1.672 1.322 3.364 2.938 3.804l.18.043 1.619.342V19c0 .511.387.936.883.994l.116.007h4.528a1 1 0 00.992-.884l.007-.117v-1.81l1.619-.342c1.637-.345 3.016-1.987 3.113-3.66L20 13v-1.993A7.995 7.995 0 0012 3zm.719 9.971l.081.096 1 1.333a1 1 0 01-.683 1.593L13 16h-2a1 1 0 01-.869-1.495l.069-.105 1-1.333a1 1 0 011.519-.096zM8 9a2 2 0 110 4 2 2 0 010-4zm8 0a2 2 0 110 4 2 2 0 010-4z" fill="#3D474D"/></svg>