<svg width="24" height="24" fill="none" xmlns="http://www.w3.org/2000/svg"><path fill-rule="evenodd" clip-rule="evenodd" d="M12 1a6 6 0 015.162 9.06 7.43 7.43 0 011.286 1.607l1.052-.669V9a.5.5 0 01.992-.09L20.5 9v1.361l1.232-.783a.5.5 0 01.608.789l-.072.055-1.015.645.97.486a.5.5 0 01.257.587l-.033.084a.5.5 0 01-.587.256l-.084-.033-1.507-.754-1.366.87a7.5 7.5 0 11-13.806.001l-1.366-.87-1.507.753A.5.5 0 011.7 11.6l.076-.047.97-.486-1.014-.645a.5.5 0 01.456-.885l.08.041 1.232.784V9a.5.5 0 01.41-.492L4 8.5a.5.5 0 01.492.41L4.5 9v1.998l1.051.67c.351-.59.783-1.131 1.286-1.609A6 6 0 0112 1zm3.865 10.588l-.075.064a6.069 6.069 0 01-.4.299l-.032.022-.034.023-.133.086-.065.04-.037.023a6.043 6.043 0 01-.64.334l-.074.032-.088.038-.088.035-.054.021.055-.021a5.866 5.866 0 01-.263.096l-.038.013a5.346 5.346 0 01-.207.065l-.095.027a5.745 5.745 0 01-.73.153l-.09.012a5.352 5.352 0 01-.428.04l-.102.004h-.007l-.065.004-.03-.001.09-.003L12 13l.146-.003-.02.002L12 13h-1.5a.495.495 0 00-.492.408l-.008.09V16.5a1 1 0 01-1.993.117L8 16.5v-3.002c0-.6.21-1.15.561-1.58l-.096-.07-.07-.053-.164-.127.104.083.072.055a6.03 6.03 0 01-.183-.143l-.006-.005.007.005-.014-.011-.004-.002-.073-.062-.107.108a5.48 5.48 0 00-1.502 3.281l-.02.269-.005.254a5.5 5.5 0 109.65-3.611l-.177-.193-.108-.108zM12 17a1 1 0 110 2 1 1 0 010-2zm0-3a1 1 0 110 2 1 1 0 010-2zm.611-6.79l.06.051.045.055c.139.201.17.5.062.714L12 9.587l-.778-1.557a.741.741 0 01.062-.714l.045-.056.06-.051a.999.999 0 011.223 0zM14 5a1 1 0 110 2 1 1 0 010-2zm-4 0a1 1 0 110 2 1 1 0 010-2zm2.637 5.949l.018-.003-.01.002.018-.003.043-.008.042-.008.143-.029c.84-.192 1.6-.654 2.178-1.333l-.019.021a4 4 0 10-6.084.019l.142.156.149.148.003.004.039.035-.022-.02.046.042.01.01.06.052.03.025v.001l.008.006.009.007.039.033.012.01.077.06.058.043.02.016c.14.101.286.194.439.277l.077.042.065.032.014.007.037.019.047.021.022.01.01.005-.01-.005.015.007.016.008c.06.026.12.051.18.074l-.007-.002.05.018.12.043c.056.019.111.036.167.053l.169.044.079.017.09.019-.06-.012.059.013.047.008h-.005l.096.016.012.002-.013-.002.011.002.078.011.104.013.019.002.017.002.112.01-.14-.013c.071.008.144.014.216.018L12 11c.074 0 .148-.002.22-.006l.109-.008-.032.003.11-.01.008-.001.102-.011-.08.01.114-.015.034-.006.03-.004h.01l.009-.002.01-.002-.007.001-.003.001-.02.002-.008.001.03-.004z" fill="#3D474D"/></svg>