<svg width="24" height="24" fill="none" xmlns="http://www.w3.org/2000/svg"><path d="M14.86 2.5a11.797 11.797 0 014.707 9.458c0 3.774-1.768 7.252-4.708 9.458a1 1 0 11-1.2-1.6 9.797 9.797 0 003.908-7.858A9.797 9.797 0 0013.66 4.1a1 1 0 011.2-1.6zm-4.493 3.056a7.986 7.986 0 013.188 6.402 7.986 7.986 0 01-3.188 6.402 1 1 0 01-1.2-1.6 5.986 5.986 0 002.388-4.802c0-1.92-.897-3.684-2.388-4.802a1 1 0 111.2-1.6zM4.5 8.811a1 1 0 011.4-.2 4.175 4.175 0 011.667 3.347A4.175 4.175 0 015.9 15.305a1 1 0 01-1.2-1.6 2.176 2.176 0 00.867-1.747c0-.7-.326-1.34-.867-1.747a1 1 0 01-.2-1.4z" fill="#3D474D"/></svg>