<svg width="24" height="24" fill="none" xmlns="http://www.w3.org/2000/svg"><g clip-path="url(#clip0_1_7256)"><path d="M19 5.086l3.707 3.707.083.094a1 1 0 010 1.226l-.083.094-.094.083a1 1 0 01-1.226 0l-.094-.083L19 7.915l-.884.885a6.338 6.338 0 011.341 1.829l.543-.543 3.707 3.707.083.094a1 1 0 010 1.226l-.083.094-.094.083a1 1 0 01-1.226 0l-.094-.083L20 12.915l-.002.001L20 13c0 .891-.216 1.735-.607 2.5h1.021l3.293 3.293.083.094a1 1 0 010 1.226l-.083.094-.094.083a1 1 0 01-1.226 0l-.094-.083-2.707-2.707H18l-.117-.007a1.002 1.002 0 01-.076-.012c-.33.28-.69.537-1.076.767l.862.43 3.114 3.115.084.094a1 1 0 010 1.226l-.084.094-.094.083a1 1 0 01-1.226 0l-.094-.083-2.886-2.886-1.854-.927-.101-.058a.993.993 0 01-.14-.11A9.755 9.755 0 0112 19.5a9.764 9.764 0 01-2.313-.275.868.868 0 01-.138.111l-.102.058-1.854.927-2.886 2.886a1 1 0 01-1.32.083l-.094-.083a1 1 0 01-.083-1.32l.083-.094 3.115-3.115.86-.43a7.76 7.76 0 01-1.076-.768l-.075.013L6 17.5H4.414l-2.707 2.707a1 1 0 01-1.32.083l-.094-.083a1 1 0 01-.083-1.32l.083-.094L3.586 15.5h1.02A5.472 5.472 0 014 13v-.085l-2.293 2.292a1 1 0 01-1.32.083l-.094-.083a1 1 0 01-.083-1.32l.083-.094L4 10.086l.543.543a6.338 6.338 0 011.34-1.83L5 7.915l-2.293 2.292a1 1 0 01-1.32.083l-.094-.083a1 1 0 01-.083-1.32l.083-.094L5 5.086l2.523 2.521C8.806 6.906 10.35 6.5 12 6.5c1.65 0 3.194.406 4.477 1.107L19 5.086zM12 8.5c-3.36 0-6 2.075-6 4.5s2.64 4.5 6 4.5 6-2.075 6-4.5-2.64-4.5-6-4.5zm-2 3a1 1 0 011 1v1a1 1 0 11-2 0v-1a1 1 0 011-1zm4 0a1 1 0 011 1v1a1 1 0 11-2 0v-1a1 1 0 011-1zM12 0a.5.5 0 01.492.41L12.5.5v5a.5.5 0 01-.992.09L11.5 5.5v-5A.5.5 0 0112 0z" fill="#3D474D"/></g><defs><clipPath id="clip0_1_7256"><path fill="#fff" d="M0 0h24v24H0z"/></clipPath></defs></svg>