<svg width="24" height="24" fill="none" xmlns="http://www.w3.org/2000/svg"><path fill-rule="evenodd" clip-rule="evenodd" d="M23.184 17.537a1 1 0 01-1.368 1.459c-1.872-1.756-3.43-1.971-6.262-.825l-.498.21-.525.236-.273.128-.569.275-.6.302-.95.488-.585.295-.54.263-.253.12-.48.219-.447.192c-1.012.418-1.81.63-2.73.738-2.278.27-4.32-.509-6.184-2.522l-.168-.185a1 1 0 111.496-1.328l.139.154c2.019 2.18 3.662 2.49 6.725 1.247l.496-.209.257-.114.534-.247.562-.272.59-.297 1.235-.632.554-.275.259-.126.488-.229.454-.202c.875-.377 1.576-.6 2.333-.745l.383-.066c2.168-.333 4.125.257 5.927 1.948zM16.7 2.6a1.5 1.5 0 01-.188 2.008L16.4 4.7l-2.865 2.148 2.213 3.32a1.5 1.5 0 01-.112 1.812 9.196 9.196 0 011.238-.325l.383-.066c2.168-.333 4.125.257 5.927 1.948a1 1 0 01-1.368 1.458c-1.872-1.755-3.43-1.97-6.262-.824l-.498.21-.525.236-.273.128-.569.276-.6.301-.95.488-.585.295-.54.263-.253.12-.48.219-.447.192c-1.012.418-1.81.63-2.73.738-2.278.27-4.32-.509-6.184-2.522l-.168-.185a1 1 0 111.496-1.328l.139.154c.911.984 1.746 1.587 2.67 1.838a1.49 1.49 0 01.53-.784l.118-.082 6.69-4.18-1.593-2.39a2.564 2.564 0 01.462-3.348l.136-.11 3.2-2.4a1.5 1.5 0 012.1.3zM19 5.5a2.5 2.5 0 110 5 2.5 2.5 0 010-5z" fill="#3D474D"/></svg>