<svg xmlns="http://www.w3.org/2000/svg" fill="none" viewBox="0 0 24 24" width="100%" height="100%">
  <g clip-path="url(#a)">
    <path fill="#3D474D" fill-rule="evenodd" d="M13 0a2 2 0 0 1 1.995 1.85L15 2v1.176l3.258-.574a1.5 1.5 0 0 1 1.706 1.076l.032.14 3.125 17.727a1.5 1.5 0 0 1-1.075 1.706l-.141.032-3.94.695a1.5 1.5 0 0 1-1.706-1.076l-.031-.141L15 15.8V22a2 2 0 0 1-1.85 1.994L13 24H8c-.287 0-.56-.06-.808-.17-.165.087-.35.144-.544.163L6.5 24h-4a1.5 1.5 0 0 1-1.493-1.355L1 22.5v-18a1.5 1.5 0 0 1 1.356-1.493L2.5 3H6V2A2 2 0 0 1 7.85.005L8 0h5Zm0 2H8v20h5V2ZM5.999 5h-3v17h3V5Zm12.113-.342-2.954.52L18.11 21.92l2.954-.52-2.952-16.742ZM12 20a.5.5 0 0 1 .09.992L12 21H9a.5.5 0 0 1-.09-.992L9 20h3Zm-7.5-6a.5.5 0 0 1 .492.41L5 14.5v6a.5.5 0 0 1-.992.09L4 20.5v-6a.5.5 0 0 1 .5-.5Zm14.22-.125.023.087 1 5.909a.5.5 0 0 1-.963.254l-.023-.087-1-5.909a.5.5 0 0 1 .963-.254ZM12 18.5a.5.5 0 0 1 .09.992L12 19.5H9a.5.5 0 0 1-.09-.992L9 18.5h3Z" clip-rule="evenodd"/>
  </g>
  <defs>
    <clipPath id="a">
      <path fill="#fff" d="M0 0h24v24H0z"/>
    </clipPath>
  </defs>
</svg>
