<svg xmlns="http://www.w3.org/2000/svg" fill="none" viewBox="0 0 24 24" width="100%" height="100%">
  <g clip-path="url(#a)">
    <path fill="#3D474D" fill-rule="evenodd" d="M20 0a1 1 0 0 1 .831 1.554l-.103.168c-.45.8-.448 1.78 0 2.555l.114.183a.99.99 0 0 1 .056.1l.006.012a.98.98 0 0 1 .097.44L21 21c0 1.532-.575 2.887-1.74 2.993l-.15.007H4.89c-1.214 0-1.838-1.294-1.886-2.81L3 21V3a3 3 0 0 1 3-3h14Zm-8.25 12a.75.75 0 0 1-1.2.6L9 11.437 7.45 12.6a.75.75 0 0 1-1.193-.494L6.25 12V5.998L6 6c-.351 0-.688-.06-1-.17V21c0 .347.05.666.131.899l.04.1H18.83l.039-.1c.067-.194.113-.448.127-.728L19 21V5.997h-7.25V12Zm-4-1.5.8-.6a.75.75 0 0 1 .808-.06l.092.06.8.6V5.997h-2.5V10.5ZM18.503 2H6a1 1 0 0 0-.993.883L5 2.999a1 1 0 0 0 1 1h12.504l-.044-.226a4.61 4.61 0 0 1 .01-1.605L18.504 2Z" clip-rule="evenodd"/>
  </g>
  <defs>
    <clipPath id="a">
      <path fill="#fff" d="M0 0h24v24H0z"/>
    </clipPath>
  </defs>
</svg>
