<svg xmlns="http://www.w3.org/2000/svg" fill="none" viewBox="0 0 24 24" width="100%" height="100%">
  <g clip-path="url(#a)">
    <path fill="#3D474D" fill-rule="evenodd" d="M18 0a4 4 0 0 1 4 4v16a4 4 0 0 1-4 4H6a4 4 0 0 1-4-4V4a4 4 0 0 1 4-4h12Zm0 2H6a2 2 0 0 0-2 2v16a2 2 0 0 0 2 2h12a2 2 0 0 0 2-2V4a2 2 0 0 0-2-2Zm-.5 7.25c.69 0 1.25.56 1.25 1.25v9c0 .69-.56 1.25-1.25 1.25h-11c-.69 0-1.25-.56-1.25-1.25v-9c0-.69.56-1.25 1.25-1.25h11ZM9.599 17H6.75v2.25h2.849V17Zm3.901 0h-2.901v2.25H13.5V17Zm1 2.25h2.75V14H14.5v5.25Zm-1-3.25v-2h-2.901v2H13.5Zm-3.901-2H6.75v2h2.849v-2Zm0-3.25H6.75V13h2.849v-2.25Zm3.901 0h-2.901V13H13.5v-2.25Zm3.75 0H14.5V13h2.75v-2.25Zm.25-7.5c.69 0 1.25.56 1.25 1.25v2c0 .69-.56 1.25-1.25 1.25h-11c-.69 0-1.25-.56-1.25-1.25v-2c0-.69.56-1.25 1.25-1.25h11Zm-.25 1.5H6.75v1.5h10.5v-1.5Z" clip-rule="evenodd"/>
  </g>
  <defs>
    <clipPath id="a">
      <path fill="#fff" d="M0 0h24v24H0z"/>
    </clipPath>
  </defs>
</svg>
