<svg xmlns="http://www.w3.org/2000/svg" fill="none" viewBox="0 0 24 24" width="100%" height="100%">
  <path fill="#3D474D" d="m13.092 6.413.243.481h.565v-.48l-.242-.242-.566.241Zm.081-1.043.323.321h.242l.404.401.162.401h.323l.242-.4V5.37h-.848l-.283-.401h-.403l-.162.401ZM11 16.91a6.877 6.877 0 0 0 3.449-.922l-.05-.393c-.99.603-2.154.95-3.399.95a6.531 6.531 0 0 1-2.269-.404v.06l.07.35c.69.233 1.43.358 2.199.358Zm6.481-4.51a6.876 6.876 0 0 0 .411-1.916h-.189l-.2.266c-.056.489-.165.96-.322 1.41l.3.24Zm-1.51-7.254a.631.631 0 0 0 .893 0l.276-.275a8.057 8.057 0 0 0-.884-.902l-.285.284a.631.631 0 0 0 0 .893ZM11 3.09a6.883 6.883 0 0 0-2.9.637l.066.36-.001.012a6.573 6.573 0 0 1 4.186-.505c.093-.129.17-.236.234-.32A6.93 6.93 0 0 0 11 3.09Zm4.357 1.547a6.915 6.915 0 0 0-1.423-.894l.157.235v.25c.326.176.636.378.926.603l.34-.194Z"/>
  <path fill="#3D474D" fill-rule="evenodd" d="M8.731 15.64v.502a6.552 6.552 0 0 1-4.228-5.345l.028.029.566.802.161.722.323.482.323.32.566.321.323.16.403-.16h1.212l.161.321.324.401.161.642-.161.24v.402l-.162.16Zm5.668-.045.05.393A6.877 6.877 0 0 1 11 16.91a6.902 6.902 0 0 1-2.2-.357 58.21 58.21 0 0 0-.069-.35v-.06a6.531 6.531 0 0 0 2.269.404 6.515 6.515 0 0 0 3.4-.951ZM8.165 4.099a6.564 6.564 0 0 0-1.908 1.39l.213.844v2.086l.323.32.646.482.484-.32-.161-.643-.323-.561v-.482l.484-.16.485.16.646.16.242.322.243.722.161.802v.562l.566.882.646.562.403.401-.242.401h-.323l-.323-.401-.485-.16-.646.16-.403.401v.963l.807 1.203h1.05l.566-.24.726-.16.485-.161.808.16.484.16.323.562.242.963.015.116a6.565 6.565 0 0 0 2.782-3.436l.3.24a6.876 6.876 0 0 0 .411-1.915h-.189l-.2.266a6.616 6.616 0 0 0 .034-1.095l.078-.314.176-.528-.352-.703v-.62a6.915 6.915 0 0 0-1.399-2.216l-.174.348a6.583 6.583 0 0 0-.85-.79l.34-.195a6.915 6.915 0 0 0-1.422-.894l.157.235v.25a6.5 6.5 0 0 0-1.74-.634c.093-.129.17-.236.234-.32a6.93 6.93 0 0 0-4.485.453l.066.36-.001.012Zm0 0-.08 1.03v.803l.404.4.565.322h1.535l.726-.321.727-.883V4.327l.243-.642.065-.091a6.573 6.573 0 0 0-4.185.505Zm5.926.13c.326.175.636.377.926.602l-.045.026-.264.264-.353-.264-.264-.352V4.23Zm1.775 1.393-.013.026-.264.352-.177.44.177.615.264.352.264.44-.264.527-.264.44-.177.351.177.528.264.351.44.264h.441l.705-.264.098-.39a6.52 6.52 0 0 0-1.671-4.032Zm1.637 5.128-.329.437-.176.352.176.616.007.005c.157-.45.266-.921.322-1.41ZM19 10a8 8 0 1 1-2.744-6.031l-.285.284a.631.631 0 1 0 .893.893l.276-.275A7.968 7.968 0 0 1 19 10Zm-1.86-5.129 1.05-1.05A9.474 9.474 0 0 1 4.36 16.758a.632.632 0 0 0-.893.893c4.193 4.193 10.99 4.193 15.184 0 4.193-4.193 4.193-10.991 0-15.184a.632.632 0 0 0-.893 0l-1.502 1.502c.318.277.613.579.884.902Z" clip-rule="evenodd"/>
  <path fill="#3D474D" d="M17.439 7.49a6.915 6.915 0 0 0-1.399-2.216l-.174.348a6.52 6.52 0 0 1 1.67 4.033l.08-.314.175-.528-.352-.703v-.62Z"/>
  <path fill="#3D474D" fill-rule="evenodd" d="M8.316 21.21a2.52 2.52 0 0 0-2.377 1.67l-.31.86 11.703-.172-.401-.88a2.532 2.532 0 0 0-2.3-1.477H8.317Zm7.61 1.143a1.888 1.888 0 0 0-1.294-.51H8.316a1.889 1.889 0 0 0-1.783 1.251l9.823-.143a1.903 1.903 0 0 0-.43-.598Z" clip-rule="evenodd"/>
  <path fill="#3D474D" d="M14.632 21.842a1.888 1.888 0 0 1 1.724 1.109l-9.823.143a1.895 1.895 0 0 1 1.783-1.252h6.316Z"/>
</svg>
