<svg xmlns="http://www.w3.org/2000/svg" fill="none" viewBox="0 0 24 24" width="100%" height="100%">
  <g clip-path="url(#a)">
    <path fill="#3D474D" fill-rule="evenodd" d="m20.009 1 .046.001a1.077 1.077 0 0 1 .17.024.969.969 0 0 1 .708.615l.003.009 3 8a1 1 0 0 1-.822 1.345L23 11h-6a1 1 0 0 1-.97-1.242l.034-.11 2.318-6.182L13 4.902V20h4a1 1 0 0 1 1 1v1h1a1 1 0 0 1 1 1v1H4v-1a1 1 0 0 1 1-1h1v-1a1 1 0 0 1 1-1h4V5.435L6.322 6.682l2.613 6.967a1 1 0 0 1-.822 1.345L8 15H2a1 1 0 0 1-.97-1.242l.034-.11L4.07 5.634a.971.971 0 0 1 .685-.604l6.244-1.665L11 2a1 1 0 1 1 2 0v.83l6.707-1.788.071-.018.022-.004-.058.014.103-.022.04-.005A.967.967 0 0 1 20.009 1ZM5 8.848 3.443 13h3.113L5 8.848Zm15-4L18.443 9h3.113L20 4.848Z" clip-rule="evenodd"/>
  </g>
  <defs>
    <clipPath id="a">
      <path fill="#fff" d="M0 0h24v24H0z"/>
    </clipPath>
  </defs>
</svg>
