<svg xmlns="http://www.w3.org/2000/svg" fill="none" viewBox="0 0 24 24" width="100%" height="100%">
  <g clip-path="url(#a)">
    <path fill="#3D474D" fill-rule="evenodd" d="M10 0a5 5 0 0 1 5 5v2h4a5 5 0 0 1 4.995 4.783L24 12v4a5 5 0 0 1-4.783 4.995L19 21v1.92a1 1 0 0 1-1.522.852l-.103-.072L14 21l-.217-.005a5 5 0 0 1-4.778-4.772L9 16v-1.2l-2.375 1.9A1 1 0 0 1 5 15.92V14a5 5 0 0 1-5-5V5a5 5 0 0 1 5-5h5Zm9 9h-4a5.002 5.002 0 0 1-3.999 4.9L11 16a3 3 0 0 0 2.824 2.995L14 19h.793a.5.5 0 0 1 .353.146L17 21v-1.5a.5.5 0 0 1 .5-.5H19a3 3 0 0 0 3-3v-4a3 3 0 0 0-3-3Zm-2.187 1.398a.7.7 0 0 1 .313.313l3.11 6.22a.6.6 0 0 1-1.073.537l-.728-1.456h-3.871l-.727 1.456a.6.6 0 0 1-1.074-.536l3.11-6.221a.7.7 0 0 1 .94-.313Zm-.313 1.744-1.336 2.67h2.67l-1.334-2.67ZM10 2H5a3 3 0 0 0-2.995 2.824L2 5v4a3 3 0 0 0 2.824 2.995L5 12h1.5a.5.5 0 0 1 .492.41L7 12.5V14l1.854-1.854a.5.5 0 0 1 .274-.14l.08-.006H10l.176-.005a3 3 0 0 0 2.819-2.819L13 9V5a3 3 0 0 0-3-3Zm-2.45.52a.75.75 0 0 1 .743.647l.007.102-.001.47 3.051.001a.75.75 0 0 1 .102 1.493l-.102.007h-.875c-.265 1.218-.88 2.33-1.834 3.333.589.436 1.278.852 2.066 1.246a.75.75 0 1 1-.67 1.342 15.12 15.12 0 0 1-2.533-1.567 15.02 15.02 0 0 1-2.53 1.567.75.75 0 1 1-.67-1.342 14.18 14.18 0 0 0 2.069-1.246C5.416 7.569 4.8 6.458 4.536 5.24H3.75a.75.75 0 0 1-.102-1.493l.102-.007h3.049l.001-.47a.75.75 0 0 1 .75-.75Zm1.377 2.72H6.084c.244.836.715 1.619 1.42 2.35.708-.731 1.18-1.514 1.423-2.35Z" clip-rule="evenodd"/>
  </g>
  <defs>
    <clipPath id="a">
      <path fill="#fff" d="M0 0h24v24H0z"/>
    </clipPath>
  </defs>
</svg>
