<svg xmlns="http://www.w3.org/2000/svg" fill="none" viewBox="0 0 24 24" width="100%" height="100%">
  <g clip-path="url(#a)">
    <path fill="#3D474D" fill-rule="evenodd" d="M12.232 3.364C16.758.164 21.003-1.01 23.007.993c2.038 2.038.788 6.394-2.537 11.006 3.325 4.613 4.575 8.97 2.537 11.008-2.038 2.038-6.395.787-11.007-2.537-4.613 3.325-8.97 4.575-11.007 2.537C-1.045 20.969.205 16.612 3.53 12 .205 7.387-1.045 3.03.993.993l.128-.12C3.209-.994 7.482.272 12 3.53l.231-.166Zm6.953 10.306-.05.06a39.616 39.616 0 0 1-2.575 2.83 39.616 39.616 0 0 1-2.83 2.575l-.06.05c.23.158.458.31.684.457l.526.33.516.308c.17.098.34.193.506.284l.494.26.242.121.475.224c2.102.95 3.76 1.144 4.48.424.72-.72.526-2.378-.424-4.48l-.224-.475-.12-.242-.261-.494c-.09-.167-.186-.335-.284-.506l-.308-.516-.33-.526a27.967 27.967 0 0 0-.457-.684Zm-14.37 0-.223.33-.233.354-.331.526-.308.516a20.49 20.49 0 0 0-.665 1.242l-.224.475c-.95 2.102-1.144 3.76-.424 4.48.72.72 2.378.526 4.48-.424l.475-.224c.4-.196.816-.419 1.242-.665l.516-.308.526-.33c.226-.147.454-.3.684-.457l-.06-.05a39.624 39.624 0 0 1-2.83-2.575 39.572 39.572 0 0 1-2.624-2.89Zm7.186-7.621a36.237 36.237 0 0 0-3.147 2.805l-.273.276A36.08 36.08 0 0 0 6.05 12l.074.093a36.303 36.303 0 0 0 2.731 3.053 36.12 36.12 0 0 0 3.33 2.949L12 17.951a36.241 36.241 0 0 0 3.147-2.805l.273-.276A36.057 36.057 0 0 0 17.95 12a36.433 36.433 0 0 0-2.805-3.146 36.301 36.301 0 0 0-3.053-2.73L12 6.048ZM12 10a2 2 0 1 1 0 4 2 2 0 0 1 0-4Zm9.593-7.593c-.72-.72-2.378-.526-4.48.424l-.475.224c-.4.196-.816.419-1.242.665l-.516.308-.526.33c-.226.147-.454.3-.684.458a39.362 39.362 0 0 1 2.89 2.624 39.63 39.63 0 0 1 2.575 2.83l.05.06c.158-.23.31-.458.456-.684l.331-.526.308-.516c.246-.426.468-.841.665-1.242l.224-.475c.95-2.102 1.144-3.76.424-4.48ZM10.179 4.712C6.598 2.28 3.475 1.34 2.407 2.407 1.34 3.475 2.28 6.598 4.712 10.18l.104.15.049-.059A39.02 39.02 0 0 1 6.889 8l.55-.56a39.63 39.63 0 0 1 2.831-2.575l.06-.049-.15-.104Z" clip-rule="evenodd"/>
  </g>
  <defs>
    <clipPath id="a">
      <path fill="#fff" d="M0 0h24v24H0z"/>
    </clipPath>
  </defs>
</svg>
