<svg xmlns="http://www.w3.org/2000/svg" fill="none" viewBox="0 0 24 24" width="100%" height="100%">
  <path fill="#3D474D" fill-rule="evenodd" d="m12.301 2.201.136.028c.046.011.095.024.15.042l.184.064.393.16 10.252 4.36a.7.7 0 0 1 0 1.29l-2.798 1.189c.245.44.382.941.382 1.466l.001 7.468a2 2 0 1 1-2.001 0l-.001-3.256-.005.127C18.837 17.092 15.42 19 12 19c-3.5 0-8-2-8-4v-.125l.014-.443.044-.742.072-.916.102-1.09.095-.932.106-.97L.584 8.143a.7.7 0 0 1 0-1.288l10.402-4.424.243-.097.185-.064.078-.024.14-.033a1.744 1.744 0 0 1 .67-.013Zm-5.999 8.887-.135 1.365-.088 1.017-.044.63-.027.515-.007.247.06.076.1.105c.293.289.778.61 1.392.904C8.896 16.592 10.603 17 12 17c1.339 0 2.755-.378 3.82-.987.432-.246.739-.49.931-.68l.123-.13c.085-.098.126-.17.126-.203l-.004-.25-.012-.301-.047-.757-.056-.7-.074-.81-.068-.686-1.837.78c-.893.374-1.376.53-1.962.63a5.49 5.49 0 0 1-1.88 0 6.114 6.114 0 0 1-.93-.233l-.356-.126-.407-.16c-.073-.03-.15-.06-.229-.094l-2.836-1.205Zm12.442-.957-.132.055.095.892.093.938.057.615.067.816.047.689.018.388.01.413L19 10.8a1 1 0 0 0-.256-.669ZM12 4.181l-.047.017-.334.137L4.179 7.5l6.446 2.741.44.18.245.091.191.06c.029.009.056.016.082.022l.152.031c.185.032.345.032.53 0l.152-.03a2.16 2.16 0 0 0 .082-.022l.19-.06.246-.092.44-.18 2.94-1.25L14 8a1 1 0 1 1 .812-1.828l4.052 1.734.956-.406-7.682-3.266L12 4.182Z" clip-rule="evenodd"/>
</svg>
