<svg xmlns="http://www.w3.org/2000/svg" fill="none" viewBox="0 0 24 24" width="100%" height="100%">
  <path fill="#3D474D" fill-rule="evenodd" d="M14.25 7.5a.75.75 0 0 1 .75-.75h5a.75.75 0 0 1 0 1.5h-5a.75.75 0 0 1-.75-.75Zm-11 0A.75.75 0 0 1 4 6.75h5a.75.75 0 0 1 0 1.5H4a.75.75 0 0 1-.75-.75Zm11 3a.75.75 0 0 1 .75-.75h5a.75.75 0 0 1 0 1.5h-5a.75.75 0 0 1-.75-.75Zm-11 0A.75.75 0 0 1 4 9.75h5a.75.75 0 0 1 0 1.5H4a.75.75 0 0 1-.75-.75Zm11 3a.75.75 0 0 1 .75-.75h5a.75.75 0 0 1 0 1.5h-5a.75.75 0 0 1-.75-.75Zm-11 0a.75.75 0 0 1 .75-.75h5a.75.75 0 0 1 0 1.5H4a.75.75 0 0 1-.75-.75Zm0 3a.75.75 0 0 1 .75-.75h5a.75.75 0 0 1 0 1.5H4a.75.75 0 0 1-.75-.75Z" clip-rule="evenodd"/>
  <path fill="#3D474D" fill-rule="evenodd" d="M2.473 4.645a.94.94 0 0 1 .287-.097c.148-.027.383-.048.804-.048H10c.61 0 1 .451 1 .882v13.236c0 .43-.39.882-1 .882H3.564c-.42 0-.656-.021-.804-.048a.938.938 0 0 1-.287-.097.769.769 0 0 1-.425-.544c-.026-.123-.048-.332-.048-.723V5.912c0-.39.022-.6.048-.723a.768.768 0 0 1 .425-.544ZM13 5.382V5h-2v.382a1 1 0 1 0 2 0Zm0 0c0-.43.39-.882 1-.882h6.436c.42 0 .656.021.804.048a.94.94 0 0 1 .287.097.769.769 0 0 1 .425.544c.026.123.048.332.048.723v12.176c0 .39-.022.6-.048.723a.77.77 0 0 1-.425.544.939.939 0 0 1-.287.097c-.148.027-.383.048-.804.048H14c-.61 0-1-.451-1-.882V5.382ZM10 2.5c.752 0 1.46.273 2 .734a3.085 3.085 0 0 1 2-.734h6.436c.966 0 1.467.095 1.99.358.496.25.9.626 1.176 1.11.294.518.398 1.018.398 1.944v12.176c0 .926-.104 1.426-.398 1.944-.275.484-.68.86-1.176 1.11-.523.263-1.024.358-1.99.358H14c-.752 0-1.46-.273-2-.734a3.09 3.09 0 0 1-2 .734H3.564c-.966 0-1.467-.095-1.99-.358-.496-.25-.9-.626-1.176-1.11C.104 19.514 0 19.014 0 18.088V5.912c0-.926.104-1.426.398-1.944.275-.484.68-.86 1.176-1.11.523-.263 1.024-.358 1.99-.358H10Z" clip-rule="evenodd"/>
  <path fill="#3D474D" d="M12 6.382a1 1 0 0 0 1-1V5h-2v.382a1 1 0 0 0 1 1Z"/>
</svg>
