<svg xmlns="http://www.w3.org/2000/svg" fill="none" viewBox="0 0 24 24" width="100%" height="100%">
  <path fill="#3D474D" d="M13 14a1 1 0 1 0 0-2 1 1 0 0 0 0 2ZM11 2a1 1 0 1 0 0-2 1 1 0 0 0 0 2Zm0 9.5a1 1 0 1 0 0-2 1 1 0 0 0 0 2ZM14 4h-2c0 .182.049.353.134.5h1.732A.995.995 0 0 0 14 4Zm-.134.5h-1.732a1 1 0 0 0 1.732 0Zm-4.116 1h-1.5V6h1.5v-.5ZM9 15.25v1.5h.75v-1.5H9Z"/>
  <path fill="#3D474D" fill-rule="evenodd" d="M16 4h-2a1 1 0 1 0-2 0H8a1 1 0 0 0 0 2h.25v14a3.75 3.75 0 1 0 7.5 0V6H16a1 1 0 1 0 0-2ZM9.75 6h-1.5v-.5H8a.5.5 0 0 1 0-1h4.134A.995.995 0 0 1 12 4h2a.995.995 0 0 1-.134.5H16a.5.5 0 0 1 0 1H9.75V6Zm2.219 9.25h2.281V6h-4.5v9.25H9v1.5h.75V20a2.25 2.25 0 0 0 4.5 0v-3.25h-4.5v-1.5h.281a1 1 0 0 0 1.938 0Zm0 0a1 1 0 1 0-1.938 0h1.938Z" clip-rule="evenodd"/>
  <path fill="#3D474D" d="M10.031 15.25a1 1 0 0 0 1.938 0H10.03ZM14.25 5.5H16a.5.5 0 0 0 0-1h-2.134a1 1 0 0 1-1.732 0H8a.5.5 0 0 0 0 1h6.25Z"/>
</svg>
