<svg xmlns="http://www.w3.org/2000/svg" fill="none" viewBox="0 0 24 24" width="100%" height="100%">
  <path fill="#3D474D" fill-rule="evenodd" d="M3.515 16.243a.994.994 0 0 0-.293.707c0 .257.097.512.293.707a.992.992 0 0 0 1.086.216l2.247-.939-.939 2.247a.99.99 0 0 0 .217 1.087c.195.195.45.293.707.293a.994.994 0 0 0 .707-.293 1.003 1.003 0 0 0 .102-1.296l-.506-.692L18.28 7.136l.691.506a1.003 1.003 0 0 0 1.297-.102.994.994 0 0 0 .293-.707.994.994 0 0 0-1.377-.92l-2.267.96.955-2.27a.989.989 0 0 0-.215-1.088.994.994 0 0 0-.707-.293.994.994 0 0 0-.707.293.996.996 0 0 0 0 1.414l.707.707L5.636 16.95l-.707-.709a.996.996 0 0 0-1.413 0Zm-2.293.707c0-.766.293-1.536.878-2.121a2.99 2.99 0 0 1 1.612-.836 3.01 3.01 0 0 1 1.803.25l8.727-8.727a3.01 3.01 0 0 1-.249-1.804 2.99 2.99 0 0 1 .835-1.611 2.994 2.994 0 0 1 2.122-.88c.766 0 1.535.294 2.121.88a2.99 2.99 0 0 1 .856 1.755 2.994 2.994 0 0 1 2.633 2.977c0 .766-.293 1.536-.878 2.121a2.99 2.99 0 0 1-1.447.802 3.014 3.014 0 0 1-1.659-.089l-8.909 8.91a2.99 2.99 0 0 1-.713 3.106 2.994 2.994 0 0 1-2.121.878 2.994 2.994 0 0 1-2.122-.879 2.99 2.99 0 0 1-.856-1.754A2.99 2.99 0 0 1 2.1 19.07a2.994 2.994 0 0 1-.878-2.121Z" clip-rule="evenodd"/>
</svg>
