<svg xmlns="http://www.w3.org/2000/svg" fill="none" viewBox="0 0 24 24" width="100%" height="100%">
  <path fill="#3D474D" fill-rule="evenodd" d="M18.718 5.283A9.5 9.5 0 1 0 5.282 18.718 9.5 9.5 0 0 0 18.718 5.283ZM4.222 4.222c4.296-4.296 11.26-4.296 15.556 0 4.296 4.296 4.296 11.26 0 15.556-4.296 4.296-11.26 4.296-15.556 0-4.296-4.295-4.296-11.26 0-15.556Z" clip-rule="evenodd"/>
  <path fill="#3D474D" fill-rule="evenodd" d="m8.501 3.41 2.678-.717.443-1.687c.344-.011.688-.007 1.031.013l-.51 1.936 1.992 1.991 3.182-.837.404-1.507a11.057 11.057 0 0 1 3.903 4.065l-.844.226-1.098 3.6 1.641 1.641 1.67-.51c.013.35.008.701-.014 1.05l-1.29.394-.746 2.784.955.954c-.048.099-.097.196-.148.293l-.487.487-1.15-1.15-2.443.656-.962 3.155 1.099 1.099a10.976 10.976 0 0 1-5.453 1.648l.38-1.42-2.447-2.449-3.058.82-.519 1.703a11 11 0 0 1-.881-.54l.53-1.74-1.713-1.714-1.786.47c-.195-.29-.375-.588-.54-.892l2.216-.584.692-2.581-2.448-2.448-1.78.477a10.984 10.984 0 0 1 1.655-5.903l1.403 1.404 3.183-.837.676-2.52-1.15-1.15.708-.707L8.5 3.41ZM6.1 13.523l2.4-.643.913-3.472-1.73-1.73-3.58.942-.615 2.292L6.1 13.523Zm3.335-.268 1.918 1.92 3.32-1.013.67-2.498-2.653-2.652-2.301.617-.954 3.626Zm6.492-2.42 2.838-.76.944-3.098-1.95-1.95-3.58.942-.66 2.459 2.408 2.407Zm-5.096 7.42.548-2.043 3.707-1.13 1.65 1.649-1.08 3.542-2.213.593-2.612-2.611Z" clip-rule="evenodd"/>
</svg>
