<svg xmlns="http://www.w3.org/2000/svg" fill="none" viewBox="0 0 24 24" width="100%" height="100%">
  <path fill="#3D474D" fill-rule="evenodd" d="M7 9.25h10v1.5H7v-1.5Zm0 3h10v1.5H7v-1.5ZM6.25 16a.75.75 0 0 1 .75-.75h10a.75.75 0 0 1 0 1.5H7a.75.75 0 0 1-.75-.75Z" clip-rule="evenodd"/>
  <path fill="#3D474D" d="M4 10.75v-1.5c-.257 0-.508.026-.75.075v1.553c.235-.083.487-.128.75-.128Z"/>
  <path fill="#3D474D" fill-rule="evenodd" d="M12 7.75c-2.35 0-4.7.265-7.055.796l-.168-.73.165.73h.003a.25.25 0 0 0-.195.243v8.421c0 .116.08.217.194.244 2.354.53 4.706.796 7.056.796 2.35 0 4.701-.265 7.055-.796l.168.73-.165-.73h-.003a.25.25 0 0 0 .195-.244V8.79a.251.251 0 0 0-.194-.244A31.963 31.963 0 0 0 12 7.75Zm-7.388-.666A33.463 33.463 0 0 1 12 6.25c2.464 0 4.927.278 7.388.834h.002a1.75 1.75 0 0 1 1.36 1.703v.538A3.767 3.767 0 0 0 20 9.25v1.5c.263 0 .515.045.75.128v4.244a2.251 2.251 0 0 0 0-4.244V9.325a3.751 3.751 0 0 1 0 7.35v.538a1.75 1.75 0 0 1-1.36 1.703h-.002c-2.46.556-4.924.834-7.388.834-2.464 0-4.927-.278-7.388-.834H4.61a1.75 1.75 0 0 1-1.36-1.703v-.538a3.751 3.751 0 0 1 0-7.35v1.553a2.251 2.251 0 0 0 0 4.244v-4.244c.235-.083.487-.128.75-.128v-1.5c-.257 0-.508.026-.75.075v-.538a1.75 1.75 0 0 1 1.36-1.703h.002Z" clip-rule="evenodd"/>
  <path fill="#3D474D" d="M20 9.25v1.5c.263 0 .515.045.75.128V9.325A3.767 3.767 0 0 0 20 9.25Z"/>
</svg>
