<svg xmlns="http://www.w3.org/2000/svg" fill="none" viewBox="0 0 24 24" width="100%" height="100%">
  <path fill="#3D474D" d="M14 5.5a2 2 0 1 0 0-4 2 2 0 0 0 0 4Zm-.56 1.171a1.1 1.1 0 0 0-1.344-.785l-.303.08a1.996 1.996 0 0 0-1.25 1.466l-.261 1.275c.188-.097.387-.173.595-.228l1.455-.38-.005-.023a1.1 1.1 0 0 1 1.127-1.342 1.094 1.094 0 0 0-.015-.063Z"/>
  <path fill="#3D474D" d="M13.158 6.76a1.1 1.1 0 0 0-.831 1.316l.005.022.321-.084a1.1 1.1 0 0 0 .8-1.28 1.102 1.102 0 0 0-.295.026Z"/>
  <path fill="#3D474D" fill-rule="evenodd" d="M13.807 11.4a4.287 4.287 0 0 0 4.617.859 1.1 1.1 0 1 0-.848-2.03 2.086 2.086 0 0 1-2.838-1.466l-.247-1.092a1.998 1.998 0 0 0-2.698-1.706l-1.473.386a5.094 5.094 0 0 0-3.105 2.351l-1.164 1.985A1.1 1.1 0 1 0 7.95 11.8l1.164-1.985c.28-.476.686-.858 1.169-1.108l-.738 3.597a1.997 1.997 0 0 0 .715 1.967 4.743 4.743 0 0 1-3.737 3.174l-2.222.361a1.248 1.248 0 1 0 .4 2.464l2.222-.36a7.24 7.24 0 0 0 5.44-4.171c.049.038.098.076.149.113l.87.64a4.743 4.743 0 0 1 1.596 2.06l1.364 3.412a1.248 1.248 0 1 0 2.318-.928l-1.364-3.41a7.24 7.24 0 0 0-2.435-3.145l-.87-.64a2.88 2.88 0 0 1-.577-.563 2.03 2.03 0 0 0 .043-.171l.35-1.707Zm-3.525-2.693.262-1.275a1.996 1.996 0 0 1 1.249-1.467l.303-.08a1.1 1.1 0 0 1 .557 2.13l-.32.083-1.456.381a2.893 2.893 0 0 0-.595.228Zm2.541 3.06a2.882 2.882 0 0 1 .08-.97l.09-.352c.008-.028.014-.056.02-.084a4.319 4.319 0 0 1-.421-1.113l-.019-.081a1.248 1.248 0 0 0-1.998.657l-.09.353a5.377 5.377 0 0 0 .872 4.52 1.997 1.997 0 0 0 1.54-.564l.305-1.091.014-.055a2.89 2.89 0 0 1-.393-1.22Z" clip-rule="evenodd"/>
  <path fill="#3D474D" d="M12.336 11.503a1.248 1.248 0 0 0-1.538.866l-.223.796a5.39 5.39 0 0 0 .782 1.532 1.997 1.997 0 0 0 1.54-.564l.305-1.091.014-.055a2.89 2.89 0 0 1-.393-1.22c-.136-.12-.3-.212-.487-.264Z"/>
  <path fill="#3D474D" d="M10.798 12.369a1.248 1.248 0 0 1 2.025-.602 2.882 2.882 0 0 1 .08-.97l.09-.352c.008-.028.014-.056.02-.084a4.319 4.319 0 0 1-.421-1.113l-.019-.081a1.248 1.248 0 0 0-1.998.657l-.09.353a5.377 5.377 0 0 0 .09 2.988l.223-.796Z"/>
</svg>
