<svg xmlns="http://www.w3.org/2000/svg" fill="none" viewBox="0 0 24 24" width="100%" height="100%">
  <path fill="#3D474D" fill-rule="evenodd" d="M5.5 7.5a1.5 1.5 0 1 0 0-3 1.5 1.5 0 0 0 0 3Zm13 0a1.5 1.5 0 1 0 0-3 1.5 1.5 0 0 0 0 3Zm-8.16 1.492-2.336.428-.505 9.72h-.998L6.083 11l-.836 8.156-.996-.012-.72-9.138L.695 9.49l.063-.991L10.224 8l.116.99ZM4.75 19.105 5.812 8.733l-5.03.265L4 9.583l.75 9.522Zm.506-9.842-.441 4.302-.335-4.261.776-.041Z" clip-rule="evenodd"/>
  <path fill="#3D474D" fill-rule="evenodd" d="M5.813 8.733 4.749 19.105 4 9.583.783 8.998l5.03-.265Zm-.998 4.832.441-4.302-.776.04.335 4.261ZM23.34 8.992l-2.336.428-.505 9.72h-.998L19.082 11l-.836 8.156-.996-.012-.72-9.138-2.837-.516.063-.991L23.224 8l.116.99Zm-5.59 10.113 1.063-10.372-5.03.265L17 9.583l.75 9.522Zm.506-9.842-.441 4.302-.335-4.261.776-.041Z" clip-rule="evenodd"/>
  <path fill="#3D474D" fill-rule="evenodd" d="M18.813 8.733 17.75 19.105 17 9.583l-3.217-.585 5.03-.265Zm-.998 4.832.441-4.302-.776.04.335 4.261Z" clip-rule="evenodd"/>
</svg>
