<svg xmlns="http://www.w3.org/2000/svg" fill="none" viewBox="0 0 24 24" width="100%" height="100%">
  <path fill="#3D474D" d="M4.571 2.25H4v1.5h.571a.75.75 0 0 0 0-1.5Zm6.858 1.5H12.5v-1.5h-1.071a.75.75 0 0 0 0 1.5ZM8.692 14.71a.75.75 0 0 0-1.384 0 6.055 6.055 0 0 0 1.384 0Z"/>
  <path fill="#3D474D" fill-rule="evenodd" d="M4 2.25a1.25 1.25 0 1 1 2.5 0v1.5a1.25 1.25 0 1 1-2.5 0h.571a.75.75 0 0 0 0-1.5H4Zm3.308 12.46C3.822 14.31 1.25 10.913 1.25 7V3A.75.75 0 0 1 2 2.25h2v1.5H2.75V7c0 3.564 2.455 6.25 5.25 6.25s5.25-2.686 5.25-6.25V3.75h-.75v-1.5H14a.75.75 0 0 1 .75.75v4c0 3.913-2.572 7.31-6.058 7.71a.75.75 0 0 0-1.384 0Zm11.434.178a.751.751 0 0 1 .008.112v2.91c0 3.212-2.562 5.84-5.75 5.84s-5.75-2.628-5.75-5.84V15c0-.103.02-.2.058-.29a6.055 6.055 0 0 0 1.384 0c.037.09.058.187.058.29v2.91c0 2.41 1.915 4.34 4.25 4.34s4.25-1.93 4.25-4.34V15c0-.038.003-.075.008-.112a2.499 2.499 0 0 0 1.484 0Zm0 0a2.501 2.501 0 1 0-1.484 0 .75.75 0 0 1 1.484 0ZM12.5 2.25a1.25 1.25 0 1 0-2.5 0v1.5a1.25 1.25 0 1 0 2.5 0h-1.071a.75.75 0 0 1 0-1.5H12.5Z" clip-rule="evenodd"/>
  <path fill="#3D474D" d="M17.258 14.888a2.499 2.499 0 0 0 1.484 0 .75.75 0 0 0-1.484 0Z"/>
</svg>
