<svg xmlns="http://www.w3.org/2000/svg" fill="none" viewBox="0 0 24 24" width="100%" height="100%">
  <path fill="#3D474D" fill-rule="evenodd" d="M16.2 3.256A2.248 2.248 0 0 0 13.96 1a2.248 2.248 0 0 0-2.24 2.256 2.248 2.248 0 0 0 2.24 2.257c1.237 0 2.24-1.01 2.24-2.257Zm-.569 3.384.083.004.047.004c.357.039.685.25.863.583l.02.04a.7.7 0 0 1 .026.056l.01.023 2.24 5.641c.23.579-.05 1.235-.624 1.467a1.116 1.116 0 0 1-1.4-.51l-.056-.119-.081-.201v8.244c0 .623-.5 1.128-1.12 1.128a1.123 1.123 0 0 1-1.112-.997l-.007-.131v-6.205H13.4v6.205c0 .578-.433 1.055-.99 1.12l-.13.008a1.123 1.123 0 0 1-1.112-.997l-.008-.131-.001-10.029-1.279 2.148a1.117 1.117 0 0 1-.846.542L6.17 22.614c-.105.296-.444.455-.759.357a.563.563 0 0 1-.404-.615l.025-.099 2.929-8.265a1.136 1.136 0 0 1-.061-1.046l.06-.116 3.36-5.641a1.12 1.12 0 0 1 .957-.548l3.355-.001Z" clip-rule="evenodd"/>
</svg>
