<svg xmlns="http://www.w3.org/2000/svg" fill="none" viewBox="0 0 24 24" width="100%" height="100%">
  <path fill="#3D474D" d="M4.5 9a.5.5 0 0 0-1 0v2h1V9Zm2-1a.5.5 0 0 0-1 0v3h1V8Zm-2 3h-1v3h1v-3Zm2 0h-1v3h1v-3Zm12-3a.5.5 0 0 0-1 0v3h1V8Zm2 1a.5.5 0 0 0-1 0v2h1V9Zm0 2h-1v3h1v-3Z"/>
  <path fill="#3D474D" fill-rule="evenodd" d="M6 7a1 1 0 0 0-1 1v1a1 1 0 0 0-2 0v2h-.5a1.5 1.5 0 0 0 0 3H3v1a1 1 0 1 0 2 0v1a1 1 0 1 0 2 0v-2h10v2a1 1 0 1 0 2 0v-1a1 1 0 1 0 2 0v-1h.5a1.5 1.5 0 0 0 0-3H21V9a1 1 0 1 0-2 0V8a1 1 0 1 0-2 0v3H7V8a1 1 0 0 0-1-1Zm12.5 4V8a.5.5 0 0 0-1 0v6h1v-3Zm2-2v5h-1V9a.5.5 0 0 1 1 0Zm-16 2V9a.5.5 0 0 0-1 0v5h1v-3Zm2-3v6h-1V8a.5.5 0 0 1 1 0Z" clip-rule="evenodd"/>
  <path fill="#3D474D" d="M18.5 11h-1v3h1v-3Z"/>
</svg>
