<svg xmlns="http://www.w3.org/2000/svg" fill="none" viewBox="0 0 24 24" width="100%" height="100%">
  <path fill="#3D474D" fill-rule="evenodd" d="M10.375 5.19c1.174 0 2.125-.938 2.125-2.095C12.5 1.938 11.549 1 10.375 1S8.25 1.938 8.25 3.095c0 1.157.951 2.095 2.125 2.095Zm0 1.048c.545 0 .994.404 1.055.925l.007.123v3.142h4.25c.587 0 1.063.47 1.063 1.048 0 .537-.41.98-.939 1.04l-.124.008-4.25-.001v2.096h5.313c.358 0 .688.177.883.466l.067.113 3.188 6.286a1.04 1.04 0 0 1-.476 1.405 1.071 1.071 0 0 1-1.363-.362l-.062-.106-2.335-4.603C16.122 20.763 13.514 23 10.375 23 6.855 23 4 20.186 4 16.714c0-3.114 2.297-5.7 5.312-6.198v-3.23c0-.579.476-1.048 1.063-1.048Zm-4.25 10.476c0 2.314 1.903 4.19 4.25 4.19s4.25-1.876 4.25-4.19h-4.25c-.545 0-.994-.404-1.055-.925l-.008-.123v-3.01c-1.833.465-3.187 2.106-3.187 4.058Z" clip-rule="evenodd"/>
</svg>
