<svg xmlns="http://www.w3.org/2000/svg" fill="none" viewBox="0 0 24 24" width="100%" height="100%">
  <g fill="#3D474D" clip-path="url(#a)">
    <path d="M11.708 6.819a1 1 0 0 0 .783.092c.092-.028.182-.055.27-.084-.29-1.485-.856-2.722-1.752-3.62-.058.289-.08.59-.076.891.007.612.115 1.314.302 2.089a1 1 0 0 0 .473.631Z"/>
    <path fill-rule="evenodd" d="M14.468.625a1 1 0 0 1 1.174.723c.19.722.303 1.387.31 1.978.008.585-.085 1.169-.373 1.667-.284.492-.735.867-1.239 1.16-.444.26-.976.481-1.579.674-.29-1.485-.856-2.722-1.752-3.62.058-.288.153-.565.299-.816.294-.51.762-.875 1.283-1.143.523-.269 1.158-.47 1.877-.623Zm-3.626 6.82C10.53 5.572 9.78 4.532 8.773 4.032a1 1 0 0 1 .89-1.791c.513.255.96.579 1.346.966-.058.289-.08.59-.076.891.007.612.115 1.314.302 2.089a1 1 0 0 0 1.256.724c.092-.028.182-.055.27-.084.034.172.064.347.09.526a5.995 5.995 0 0 0-1.133.517 6.033 6.033 0 0 0-.876-.425Zm0 0a5.954 5.954 0 0 0-3.425-.255c-1.819.387-3.302 1.253-4.236 2.53-.943 1.29-1.255 2.901-.89 4.612.34 1.6 1.311 3.932 2.548 5.868.621.972 1.338 1.89 2.116 2.578.75.662 1.67 1.21 2.695 1.227l.024.002.195.019a5.1 5.1 0 0 0 .642.012 3.629 3.629 0 0 0 1.207-.254c.44.181.88.238 1.207.254a5.083 5.083 0 0 0 .838-.03l.023-.003c1.026-.017 1.946-.565 2.695-1.227.778-.687 1.495-1.606 2.116-2.578 1.237-1.936 2.21-4.267 2.55-5.867.363-1.712.052-3.323-.891-4.613-.935-1.277-2.418-2.143-4.237-2.53a5.964 5.964 0 0 0-3.168.163c.041.28.074.568.097.863a1 1 0 1 1-1.993.16 11.066 11.066 0 0 0-.113-.93Zm2.664-4.419c-.313.162-.428.298-.466.365-.04.07-.111.266-.107.686.002.158.014.336.038.534.136-.062.257-.124.363-.186.331-.193.465-.349.513-.432.044-.077.11-.263.106-.64a4.219 4.219 0 0 0-.04-.502 3.598 3.598 0 0 0-.407.175Zm-5.673 6.12c1.273-.27 2.39.05 3.283.724a1 1 0 0 0 1.205 0c.892-.674 2.01-.994 3.283-.724 1.45.308 2.455.958 3.037 1.755.574.784.807 1.803.55 3.016-.282 1.323-1.146 3.432-2.28 5.206-.563.883-1.165 1.636-1.754 2.156-.606.536-1.085.726-1.419.726-.061 0-.119.006-.128.007h-.001l-.051.006-.01.001a3.075 3.075 0 0 1-.526.02c-.318-.015-.558-.085-.696-.19a1 1 0 0 0-1.217 0c-.137.105-.376.176-.694.19a3.077 3.077 0 0 1-.526-.02l-.01-.001-.051-.006h-.001a1.298 1.298 0 0 0-.129-.007c-.334 0-.812-.19-1.418-.726-.59-.52-1.191-1.273-1.755-2.156-1.133-1.774-1.997-3.883-2.279-5.206-.257-1.213-.024-2.232.55-3.016.582-.796 1.587-1.447 3.037-1.755Z" clip-rule="evenodd"/>
    <path d="M12.032 9.293a1 1 0 0 0 .916-1.077 13.174 13.174 0 0 0-.097-.863 5.995 5.995 0 0 0-1.133.517 6.033 6.033 0 0 0-.876-.425c.048.29.086.6.113.931a1 1 0 0 0 1.077.917Z"/>
  </g>
  <defs>
    <clipPath id="a">
      <path fill="#fff" d="M0 0h24v24H0z"/>
    </clipPath>
  </defs>
</svg>
