<svg xmlns="http://www.w3.org/2000/svg" fill="none" viewBox="0 0 24 24" width="100%" height="100%">
  <path fill="#3D474D" fill-rule="evenodd" d="M6.861 10.812c-.494-.193-1.197-.652-1.571-1.026L.204 4.7a.49.49 0 0 1-.007-.685.48.48 0 0 1 .673-.007l3.406 3.407a.48.48 0 0 0 .679-.679L1.549 3.33a.48.48 0 0 1 .678-.68l3.407 3.407a.48.48 0 0 0 .679-.679L2.906 1.972a.48.48 0 0 1 .692-.666l5.086 5.086c.374.374.837 1.086 1.025 1.571l.603 1.548c.193.494.656 1.196 1.035 1.568l11.056 10.859a.948.948 0 0 1 .007 1.352.971.971 0 0 1-1.364.005L9.989 12.436c-.379-.372-1.095-.832-1.58-1.021l-1.548-.603Zm3.421 3.298 1.367 1.367-7.731 7.716a.966.966 0 0 1-1.272.083l-.09-.08-.081-.091a.96.96 0 0 1 .083-1.27l7.724-7.725ZM23.089 1.305l-.106 3.215c-.018.548-.314 1.35-.661 1.783l-4.32 5.389c-.344.43-1.072.776-1.62.765l-1.673-.033-.23.227-1.368-1.369 9.978-9.977Z" clip-rule="evenodd"/>
</svg>
