<svg xmlns="http://www.w3.org/2000/svg" fill="none" viewBox="0 0 24 24" width="100%" height="100%">
  <path fill="#3D474D" d="M12 5.354c-.622.705-1 1.631-1 2.646a3.99 3.99 0 0 0 1 2.646c.622-.705 1-1.632 1-2.646s-.378-1.94-1-2.646Zm-3.06 5.304a1 1 0 1 0-1.88.684l.071.196a3.982 3.982 0 0 0 2.289.44l-.48-1.32Z"/>
  <path fill="#3D474D" fill-rule="evenodd" d="M10.264 4.204c.1-.471.26-.783.435-.985.237-.272.615-.47 1.301-.47.686 0 1.063.198 1.298.469.176.202.335.515.434.987A4.004 4.004 0 0 0 12 5.355a4.004 4.004 0 0 0-1.736-1.151Zm-2.01-.135a7.553 7.553 0 0 0-.089.887l1.998.088a5.16 5.16 0 0 1 .1-.84 3.996 3.996 0 0 0-2.008-.135Zm-1.123 7.469 3.93 10.804a1 1 0 0 0 1.879 0l3.929-10.804a4 4 0 0 0-1.13-7.47c-.135-.837-.426-1.58-.932-2.163C14.1 1.092 13.11.75 12 .75s-2.1.343-2.808 1.155c-.508.582-.8 1.327-.937 2.165a4.001 4.001 0 0 0-1.124 7.469Zm2.289.44a3.982 3.982 0 0 1-2.288-.44l-.072-.196a1 1 0 1 1 1.88-.684l.48 1.32ZM12 10.646a3.992 3.992 0 0 0 2.58 1.332L12 19.074l-2.58-7.096A3.992 3.992 0 0 0 12 10.646ZM11 8a3.99 3.99 0 0 1 1-2.646c.622.705 1 1.631 1 2.646a3.99 3.99 0 0 1-1 2.646A3.985 3.985 0 0 1 11 8Zm0 0a2 2 0 1 1-4 0 2 2 0 0 1 4 0Zm2 0a2 2 0 1 1 4 0 2 2 0 0 1-4 0Z" clip-rule="evenodd"/>
  <path fill="#3D474D" d="m8.165 4.956 1.998.088a5.16 5.16 0 0 1 .1-.84 3.996 3.996 0 0 0-2.008-.135 7.553 7.553 0 0 0-.09.887Z"/>
</svg>
