<svg xmlns="http://www.w3.org/2000/svg" fill="none" viewBox="0 0 24 24" width="100%" height="100%">
  <path fill="#3D474D" d="M12.884 22.884c.226-.226.366-.539.366-.884v-5h-.75v5a.496.496 0 0 1-.5.5.496.496 0 0 1-.5-.5v-5h-.75v5A1.246 1.246 0 0 0 12 23.25c.345 0 .658-.14.884-.366Z"/>
  <path fill="#3D474D" fill-rule="evenodd" d="M9.172 3.172A3.984 3.984 0 0 1 12 2c1.105 0 2.104.447 2.828 1.172A3.984 3.984 0 0 1 16 6v9H8V6c0-1.105.447-2.103 1.172-2.828ZM12 0a5.984 5.984 0 0 0-4.243 1.757A5.984 5.984 0 0 0 6 6v11h4v5a1.996 1.996 0 0 0 2 2 1.996 1.996 0 0 0 2-2v-5h4V6a5.984 5.984 0 0 0-1.757-4.243A5.984 5.984 0 0 0 12 0Zm-1.25 17v5A1.246 1.246 0 0 0 12 23.25 1.246 1.246 0 0 0 13.25 22v-5.75h-2.5V17Zm.75 0v5a.496.496 0 0 0 .5.5.496.496 0 0 0 .5-.5v-5h-1Z" clip-rule="evenodd"/>
  <path fill="#3D474D" d="M13.25 16.25h-2.5V17h2.5v-.75Z"/>
</svg>
